<svg width="4926" height="2922" viewBox="0 0 4926 2922" fill="none" xmlns="http://www.w3.org/2000/svg">
<g filter="url(#filter0_f_240_3210)">
<path d="M3102.73 2516.66H2189.15L2637.32 2818.32L3102.73 2516.66Z" fill="#FA9F42"/>
<path d="M129.281 2591.21H2155.76L2636.08 2912L3128.59 2591.21H5093.65" stroke="#D0D0D0" stroke-width="10" stroke-linecap="round"/>
<mask id="mask0_240_3210" style="mask-type:alpha" maskUnits="userSpaceOnUse" x="0" y="0" width="5189" height="2517">
<rect width="5188.46" height="2516.66" fill="#C4C4C4"/>
</mask>
<g mask="url(#mask0_240_3210)">
<path d="M2602.85 4246.63C3621.48 4246.63 4447.25 3455.99 4447.25 2480.68C4447.25 1505.37 3621.48 714.729 2602.85 714.729C1584.21 714.729 758.446 1505.37 758.446 2480.68C758.446 3455.99 1584.21 4246.63 2602.85 4246.63Z" fill="#FA9E42"/>
<g filter="url(#filter1_f_240_3210)">
<path d="M2405.83 2130.8C3051.03 1802.68 3416.01 1251.76 3221.03 900.275C3026.05 548.795 2344.95 529.856 1699.74 857.975C1054.54 1186.09 689.561 1737.02 884.541 2088.5C1079.52 2439.98 1760.63 2458.92 2405.83 2130.8Z" fill="#F8E36F"/>
</g>
</g>
</g>
<defs>
<filter id="filter0_f_240_3210" x="120.281" y="619.758" width="4982.37" height="2302.23" filterUnits="userSpaceOnUse" color-interpolation-filters="sRGB">
<feFlood flood-opacity="0" result="BackgroundImageFix"/>
<feBlend mode="normal" in="SourceGraphic" in2="BackgroundImageFix" result="shape"/>
<feGaussianBlur stdDeviation="2" result="effect1_foregroundBlur_240_3210"/>
</filter>
<filter id="filter1_f_240_3210" x="812.04" y="603.758" width="2481.49" height="1781.26" filterUnits="userSpaceOnUse" color-interpolation-filters="sRGB">
<feFlood flood-opacity="0" result="BackgroundImageFix"/>
<feBlend mode="normal" in="SourceGraphic" in2="BackgroundImageFix" result="shape"/>
<feGaussianBlur stdDeviation="10" result="effect1_foregroundBlur_240_3210"/>
</filter>
</defs>
</svg>
