<svg width="2301" height="1655" viewBox="0 0 2301 1655" fill="none" xmlns="http://www.w3.org/2000/svg">
<g filter="url(#filter0_f_240_3534)">
<path d="M602.695 1248.86C920.514 1248.86 1178.16 989.907 1178.16 670.475C1178.16 351.043 920.514 92.0916 602.695 92.0916C284.876 92.0916 27.2329 351.043 27.2329 670.475C27.2329 989.907 284.876 1248.86 602.695 1248.86Z" fill="#FA9E42"/>
<g filter="url(#filter1_f_240_3534)">
<path d="M561.113 588.223C752.368 486.639 859.342 313.785 800.044 202.144C740.747 90.5031 537.633 82.3505 346.377 183.935C155.122 285.519 48.1483 458.373 107.446 570.014C166.743 681.655 369.857 689.808 561.113 588.223Z" fill="#F8E36F"/>
</g>
<g filter="url(#filter2_d_240_3534)">
<path d="M1735.19 1622.76H616.793C508.3 1622.68 404.044 1580.63 325.852 1505.42C247.66 1430.21 201.593 1327.67 197.296 1219.26C192.999 1110.85 230.805 1004.98 302.799 923.817C374.792 842.653 475.392 792.484 583.539 783.815C598.961 674.915 648.137 573.591 724.148 494.097C800.159 414.603 899.181 360.94 1007.28 340.658C1115.38 320.376 1227.12 334.496 1326.78 381.03C1426.43 427.565 1508.99 504.173 1562.84 600.076C1661.61 565.887 1768.32 561.892 1869.36 588.601C1970.4 615.31 2061.2 671.512 2130.17 750.039C2199.14 828.565 2243.16 925.856 2256.61 1029.5C2270.05 1133.15 2252.32 1238.45 2205.68 1331.98C2178.3 1416.48 2124.86 1490.13 2053.03 1542.37C1981.19 1594.62 1894.66 1622.76 1805.83 1622.76H1735.19Z" fill="url(#paint0_linear_240_3534)"/>
<path d="M1805.83 1616.92C1850.93 1616.92 1895.27 1609.72 1937.63 1595.51C1978.58 1581.78 2017.03 1561.74 2051.91 1535.95C2086.39 1510.45 2116.61 1479.91 2141.74 1445.17C2167.18 1410 2186.82 1371.31 2200.12 1330.18L2200.25 1329.76L2200.45 1329.36C2218.14 1294.03 2231.75 1256.65 2240.93 1218.26C2250.36 1178.77 2255.15 1137.95 2255.15 1096.96C2255.15 1061.67 2251.6 1026.42 2244.59 992.161C2237.76 958.779 2227.56 925.944 2214.29 894.567C2201.26 863.759 2185.13 834.043 2166.35 806.247C2147.75 778.713 2126.39 752.821 2102.86 729.29C2079.33 705.759 2053.43 684.396 2025.9 665.794C1998.1 647.015 1968.39 630.886 1937.58 617.855C1906.2 604.583 1873.37 594.391 1839.99 587.56C1805.73 580.55 1770.47 576.996 1735.19 576.996C1676.77 576.996 1619.43 586.61 1564.75 605.571L1560.14 607.171L1557.75 602.915C1513.25 523.8 1448.53 457.359 1370.58 410.774C1331.16 387.214 1288.81 369.009 1244.7 356.662C1199.2 343.925 1151.94 337.466 1104.23 337.466C1040.05 337.466 977.404 349.016 918.029 371.796C860.67 393.801 808.051 425.589 761.635 466.276C715.486 506.729 677.188 554.46 647.805 608.143C617.701 663.144 598.025 722.513 589.324 784.603L588.673 789.25L583.994 789.617C531.658 793.713 481.304 807.493 434.332 830.572C388.689 852.997 347.933 883.329 313.194 920.724C241.812 997.565 202.5 1097.68 202.5 1202.63C202.5 1258.56 213.453 1312.81 235.055 1363.89C245.438 1388.43 258.289 1412.11 273.252 1434.26C288.073 1456.2 305.095 1476.83 323.844 1495.57C342.592 1514.32 363.223 1531.35 385.162 1546.17C407.309 1561.13 430.985 1573.98 455.532 1584.36C506.604 1605.96 560.859 1616.92 616.791 1616.92H1735.19H1805.83ZM1805.83 1622.76H1735.19H616.791C384.759 1622.76 196.658 1434.66 196.658 1202.63C196.658 981.784 367.046 800.738 583.538 783.792C619.348 528.259 838.821 331.624 1104.23 331.624C1301.12 331.624 1472.74 439.841 1562.84 600.052C1616.83 581.325 1674.82 571.154 1735.19 571.154C2025.58 571.154 2260.99 806.566 2260.99 1096.96C2260.99 1181.43 2241.07 1261.25 2205.68 1331.97C2151.13 1500.71 1992.73 1622.76 1805.83 1622.76Z" fill="white" fill-opacity="0.5"/>
</g>
</g>
<defs>
<filter id="filter0_f_240_3534" x="23.2329" y="88.0916" width="2241.76" height="1538.67" filterUnits="userSpaceOnUse" color-interpolation-filters="sRGB">
<feFlood flood-opacity="0" result="BackgroundImageFix"/>
<feBlend mode="normal" in="SourceGraphic" in2="BackgroundImageFix" result="shape"/>
<feGaussianBlur stdDeviation="2" result="effect1_foregroundBlur_240_3534"/>
</filter>
<filter id="filter1_f_240_3534" x="71.0869" y="92.7747" width="765.316" height="586.609" filterUnits="userSpaceOnUse" color-interpolation-filters="sRGB">
<feFlood flood-opacity="0" result="BackgroundImageFix"/>
<feBlend mode="normal" in="SourceGraphic" in2="BackgroundImageFix" result="shape"/>
<feGaussianBlur stdDeviation="10" result="effect1_foregroundBlur_240_3534"/>
</filter>
<filter id="filter2_d_240_3534" x="176.658" y="303.624" width="2124.33" height="1351.14" filterUnits="userSpaceOnUse" color-interpolation-filters="sRGB">
<feFlood flood-opacity="0" result="BackgroundImageFix"/>
<feColorMatrix in="SourceAlpha" type="matrix" values="0 0 0 0 0 0 0 0 0 0 0 0 0 0 0 0 0 0 127 0" result="hardAlpha"/>
<feOffset dx="10" dy="2"/>
<feGaussianBlur stdDeviation="15"/>
<feColorMatrix type="matrix" values="0 0 0 0 0.501961 0 0 0 0 0.501961 0 0 0 0 0.501961 0 0 0 0.302 0"/>
<feBlend mode="normal" in2="BackgroundImageFix" result="effect1_dropShadow_240_3534"/>
<feBlend mode="normal" in="SourceGraphic" in2="effect1_dropShadow_240_3534" result="shape"/>
</filter>
<linearGradient id="paint0_linear_240_3534" x1="1228.97" y1="331.639" x2="1828.64" y2="1781.48" gradientUnits="userSpaceOnUse">
<stop stop-color="white" stop-opacity="0.604"/>
<stop offset="1" stop-color="white" stop-opacity="0.2"/>
</linearGradient>
</defs>
</svg>
