<svg width="17" height="20" viewBox="0 0 17 20" fill="none" xmlns="http://www.w3.org/2000/svg">
<path d="M8.25 2.59233L3.7125 7.12983C2.81518 8.02725 2.20412 9.17059 1.95658 10.4153C1.70905 11.66 1.83616 12.9501 2.32184 14.1226C2.80752 15.295 3.62996 16.2971 4.68516 17.0022C5.74036 17.7072 6.98093 18.0835 8.25 18.0835C9.51907 18.0835 10.7596 17.7072 11.8148 17.0022C12.87 16.2971 13.6925 15.295 14.1782 14.1226C14.6638 12.9501 14.791 11.66 14.5434 10.4153C14.2959 9.17059 13.6848 8.02725 12.7875 7.12983L8.25 2.59233ZM8.25 0L14.0837 5.83367C15.2374 6.98746 16.0232 8.45746 16.3415 10.0578C16.6598 11.6581 16.4964 13.3169 15.872 14.8244C15.2476 16.3319 14.1901 17.6204 12.8334 18.5269C11.4767 19.4334 9.88169 19.9173 8.25 19.9173C6.61831 19.9173 5.02326 19.4334 3.66656 18.5269C2.30986 17.6204 1.25243 16.3319 0.628007 14.8244C0.00358128 13.3169 -0.159802 11.6581 0.158518 10.0578C0.476838 8.45746 1.26256 6.98746 2.41634 5.83367L8.25 0V0Z" fill="black"/>
</svg>
