<svg width="1201" height="1928" viewBox="0 0 1201 1928" fill="none" xmlns="http://www.w3.org/2000/svg">
<g filter="url(#filter0_f_240_3543)">
<path d="M708.619 39.0508C756.449 39.0388 804.157 43.8715 851.012 53.475C941.444 72.1004 1027.3 108.413 1103.66 160.326C1209.44 232.022 1293.95 330.889 1348.32 446.536C1402.68 562.182 1424.89 690.338 1412.61 817.535C1400.33 944.732 1354.02 1066.27 1278.53 1169.38C1203.04 1272.49 1101.18 1353.37 983.635 1403.5C940.906 1421.66 896.478 1435.52 851.006 1444.88C752.403 1464.88 650.673 1463.63 552.59 1441.23C454.507 1418.82 362.325 1375.78 282.182 1314.95C202.04 1254.13 135.779 1176.93 87.8114 1088.49C39.8442 1000.05 11.2726 902.408 4.00004 802.063C81.3172 820.157 161.633 821.321 239.442 805.474C309.264 791.175 375.587 763.267 434.626 723.343C522.388 664.096 591.084 580.667 632.39 483.167C646.347 450.145 657 415.823 664.193 380.702C679.525 305.451 678.958 227.826 662.528 152.807C654.263 115.295 642.04 78.7661 626.065 43.8339C653.467 40.6451 681.032 39.048 708.619 39.0508V39.0508Z" fill="#713FFD"/>
<g filter="url(#filter1_f_240_3543)">
<path d="M1186.73 258.574C1028.13 115.767 820.354 87.9611 722.655 196.467C624.956 304.972 674.329 508.701 832.931 651.507C991.534 794.313 1199.31 822.12 1297.01 713.614C1394.7 605.108 1345.33 401.38 1186.73 258.574Z" fill="#A586FC"/>
</g>
<g filter="url(#filter2_d_240_3543)">
<path d="M2105.54 1896H799.362C672.652 1895.9 550.892 1846.8 459.571 1758.96C368.25 1671.12 314.448 1551.35 309.43 1424.74C304.411 1298.13 348.564 1174.49 432.646 1079.7C516.728 984.905 634.22 926.313 760.524 916.188C778.536 789.003 835.969 670.666 924.743 577.824C1013.52 484.983 1129.16 422.31 1255.42 398.623C1381.67 374.935 1512.17 391.425 1628.56 445.773C1744.95 500.121 1841.37 589.592 1904.26 701.598C2019.6 661.668 2144.23 657.003 2262.24 688.197C2380.25 719.39 2486.3 785.029 2566.85 876.74C2647.4 968.451 2698.8 1082.08 2714.51 1203.13C2730.21 1324.17 2709.51 1447.16 2655.03 1556.39C2623.06 1655.08 2560.65 1741.1 2476.75 1802.11C2392.85 1863.13 2291.79 1895.99 2188.05 1896H2105.54Z" fill="url(#paint0_linear_240_3543)"/>
<path d="M2188.05 1889.17C2240.72 1889.17 2292.51 1880.76 2341.97 1864.18C2389.8 1848.14 2434.71 1824.73 2475.44 1794.61C2515.71 1764.83 2551 1729.16 2580.35 1688.59C2610.06 1647.51 2633 1602.33 2648.53 1554.29L2648.69 1553.8L2648.93 1553.33C2669.58 1512.07 2685.48 1468.41 2696.2 1423.58C2707.22 1377.45 2712.81 1329.79 2712.81 1281.91C2712.81 1240.7 2708.66 1199.52 2700.47 1159.52C2692.49 1120.53 2680.59 1082.18 2665.09 1045.54C2649.87 1009.55 2631.03 974.85 2609.1 942.386C2587.38 910.229 2562.43 879.99 2534.94 852.508C2507.46 825.026 2477.22 800.076 2445.07 778.351C2412.6 756.418 2377.9 737.581 2341.92 722.362C2305.27 706.862 2266.92 694.958 2227.94 686.98C2187.93 678.794 2146.75 674.643 2105.54 674.643C2037.31 674.643 1970.34 685.871 1906.49 708.016L1901.1 709.885L1898.31 704.914C1846.34 612.515 1770.76 534.918 1679.72 480.511C1633.68 452.996 1584.22 431.733 1532.7 417.313C1479.56 402.437 1424.36 394.895 1368.64 394.895C1293.69 394.895 1220.52 408.384 1151.18 434.988C1084.19 460.689 1022.73 497.814 968.524 545.333C914.626 592.578 869.898 648.323 835.581 711.019C800.423 775.255 777.443 844.593 767.281 917.108L766.52 922.536L761.056 922.964C699.932 927.748 641.124 943.841 586.264 970.795C532.959 996.986 485.359 1032.41 444.787 1076.09C361.42 1165.83 315.508 1282.75 315.508 1405.32C315.508 1470.64 328.299 1534.01 353.528 1593.66C365.654 1622.32 380.663 1649.98 398.138 1675.84C415.448 1701.46 435.328 1725.56 457.225 1747.46C479.122 1769.35 503.216 1789.23 528.839 1806.54C554.705 1824.02 582.356 1839.03 611.025 1851.15C670.672 1876.38 734.037 1889.17 799.359 1889.17H2105.54H2188.05ZM2188.05 1896H2105.54H799.359C528.368 1896 308.684 1676.31 308.684 1405.32C308.684 1147.4 507.681 935.952 760.524 916.161C802.346 617.723 1058.67 388.071 1368.64 388.071C1598.59 388.071 1799.03 514.459 1904.25 701.57C1967.32 679.699 2035.04 667.819 2105.54 667.819C2444.69 667.819 2719.63 942.759 2719.63 1281.91C2719.63 1380.57 2696.37 1473.78 2655.03 1556.39C2591.32 1753.46 2406.33 1896 2188.05 1896Z" fill="white" fill-opacity="0.5"/>
</g>
</g>
<defs>
<filter id="filter0_f_240_3543" x="0" y="35.0508" width="2723.63" height="1864.95" filterUnits="userSpaceOnUse" color-interpolation-filters="sRGB">
<feFlood flood-opacity="0" result="BackgroundImageFix"/>
<feBlend mode="normal" in="SourceGraphic" in2="BackgroundImageFix" result="shape"/>
<feGaussianBlur stdDeviation="2" result="effect1_foregroundBlur_240_3543"/>
</filter>
<filter id="filter1_f_240_3543" x="652.496" y="110.277" width="714.67" height="689.526" filterUnits="userSpaceOnUse" color-interpolation-filters="sRGB">
<feFlood flood-opacity="0" result="BackgroundImageFix"/>
<feBlend mode="normal" in="SourceGraphic" in2="BackgroundImageFix" result="shape"/>
<feGaussianBlur stdDeviation="10" result="effect1_foregroundBlur_240_3543"/>
</filter>
<filter id="filter2_d_240_3543" x="288.684" y="360.071" width="2470.95" height="1567.93" filterUnits="userSpaceOnUse" color-interpolation-filters="sRGB">
<feFlood flood-opacity="0" result="BackgroundImageFix"/>
<feColorMatrix in="SourceAlpha" type="matrix" values="0 0 0 0 0 0 0 0 0 0 0 0 0 0 0 0 0 0 127 0" result="hardAlpha"/>
<feOffset dx="10" dy="2"/>
<feGaussianBlur stdDeviation="15"/>
<feColorMatrix type="matrix" values="0 0 0 0 0.501961 0 0 0 0 0.501961 0 0 0 0 0.501961 0 0 0 0.302 0"/>
<feBlend mode="normal" in2="BackgroundImageFix" result="effect1_dropShadow_240_3543"/>
<feBlend mode="normal" in="SourceGraphic" in2="effect1_dropShadow_240_3543" result="shape"/>
</filter>
<linearGradient id="paint0_linear_240_3543" x1="1514.33" y1="388.088" x2="2214.68" y2="2081.36" gradientUnits="userSpaceOnUse">
<stop stop-color="white" stop-opacity="0.604"/>
<stop offset="1" stop-color="white" stop-opacity="0.2"/>
</linearGradient>
</defs>
</svg>
