<svg width="3445" height="2763" viewBox="0 0 3445 2763" fill="none" xmlns="http://www.w3.org/2000/svg">
<g filter="url(#filter0_f_240_3512)">
<path d="M768.8 2250.53C784.128 2250.7 939.494 2493.29 939.494 2587.57C939.494 2632.84 921.51 2676.25 889.499 2708.27C857.487 2740.28 814.071 2758.26 768.8 2758.26C723.529 2758.26 680.112 2740.28 648.101 2708.27C616.09 2676.25 598.106 2632.84 598.106 2587.57C598.106 2493.3 753.482 2250.36 768.8 2250.53Z" fill="#42A0F0"/>
<path d="M638.659 2651.36C655.715 2656.58 677.392 2635.13 687.075 2603.46C696.759 2571.78 690.782 2541.88 673.726 2536.66C656.67 2531.45 634.993 2552.9 625.31 2584.57C615.626 2616.25 621.603 2646.15 638.659 2651.36Z" fill="white"/>
<path d="M1659.73 2250.53C1675.05 2250.7 1830.42 2493.29 1830.42 2587.57C1830.42 2632.84 1812.44 2676.25 1780.43 2708.27C1748.41 2740.28 1705 2758.26 1659.73 2758.26C1614.46 2758.26 1571.04 2740.28 1539.03 2708.27C1507.02 2676.25 1489.03 2632.84 1489.03 2587.57C1489.03 2493.3 1644.41 2250.36 1659.73 2250.53Z" fill="#42A0F0"/>
<path d="M1529.59 2651.36C1546.64 2656.58 1568.32 2635.13 1578 2603.46C1587.69 2571.78 1581.71 2541.88 1564.65 2536.66C1547.6 2531.45 1525.92 2552.9 1516.24 2584.57C1506.55 2616.25 1512.53 2646.15 1529.59 2651.36Z" fill="white"/>
<path d="M2550.65 2250.53C2565.98 2250.7 2721.35 2493.29 2721.35 2587.57C2721.35 2632.84 2703.36 2676.25 2671.35 2708.27C2639.34 2740.28 2595.92 2758.26 2550.65 2758.26C2505.38 2758.26 2461.97 2740.28 2429.96 2708.27C2397.94 2676.25 2379.96 2632.84 2379.96 2587.57C2379.96 2493.3 2535.34 2250.36 2550.65 2250.53Z" fill="#42A0F0"/>
<path d="M2420.51 2651.36C2437.57 2656.58 2459.25 2635.13 2468.93 2603.46C2478.61 2571.78 2472.64 2541.88 2455.58 2536.66C2438.52 2531.45 2416.85 2552.9 2407.16 2584.57C2397.48 2616.25 2403.46 2646.15 2420.51 2651.36Z" fill="white"/>
<path d="M1219.05 1503.3C1234.38 1503.47 1389.75 1746.06 1389.75 1840.34C1389.75 1885.61 1371.76 1929.03 1339.75 1961.04C1307.74 1993.05 1264.32 2011.03 1219.05 2011.03C1173.78 2011.03 1130.37 1993.05 1098.35 1961.04C1066.34 1929.03 1048.36 1885.61 1048.36 1840.34C1048.36 1746.07 1203.74 1503.13 1219.05 1503.3Z" fill="#42A0F0"/>
<path d="M1088.91 1904.13C1105.97 1909.35 1127.64 1887.9 1137.33 1856.23C1147.01 1824.55 1141.04 1794.65 1123.98 1789.44C1106.92 1784.22 1085.25 1805.67 1075.56 1837.34C1065.88 1869.02 1071.86 1898.92 1088.91 1904.13Z" fill="white"/>
<path d="M2157.88 1503.3C2173.21 1503.47 2328.57 1746.06 2328.57 1840.34C2328.57 1885.61 2310.59 1929.03 2278.58 1961.04C2246.57 1993.05 2203.15 2011.03 2157.88 2011.03C2112.61 2011.03 2069.19 1993.05 2037.18 1961.04C2005.17 1929.03 1987.19 1885.61 1987.19 1840.34C1987.19 1746.07 2142.56 1503.13 2157.88 1503.3Z" fill="#42A0F0"/>
<path d="M2027.74 1904.13C2044.79 1909.35 2066.47 1887.9 2076.15 1856.23C2085.84 1824.55 2079.86 1794.65 2062.81 1789.44C2045.75 1784.22 2024.07 1805.67 2014.39 1837.34C2004.71 1869.02 2010.68 1898.92 2027.74 1904.13Z" fill="white"/>
<g filter="url(#filter1_d_240_3512)">
<path d="M2542.81 2145.15H708.917C531.015 2145.01 360.062 2076.07 231.846 1952.74C103.63 1829.41 28.0926 1661.26 21.0465 1483.5C14.0003 1305.74 75.9921 1132.14 194.044 999.051C312.096 865.961 477.055 783.698 654.389 769.481C679.677 590.913 760.314 424.766 884.954 294.416C1009.59 164.065 1171.96 76.0718 1349.22 42.8143C1526.48 9.55687 1709.7 32.7093 1873.12 109.015C2036.53 185.32 2171.91 310.937 2260.2 468.195C2422.15 412.134 2597.13 405.583 2762.82 449.38C2928.5 493.176 3077.39 585.333 3190.49 714.097C3303.58 842.86 3375.76 1002.39 3397.81 1172.35C3419.86 1342.3 3390.78 1514.97 3314.29 1668.33C3269.41 1806.89 3181.78 1927.67 3063.99 2013.33C2946.2 2098.99 2804.3 2145.14 2658.65 2145.15H2542.81Z" fill="url(#paint0_linear_240_3512)"/>
<path d="M2658.65 2135.57C2732.6 2135.57 2805.31 2123.76 2874.76 2100.47C2941.92 2077.95 3004.97 2045.09 3062.16 2002.79C3118.69 1960.99 3168.24 1910.91 3209.45 1853.94C3251.16 1796.27 3283.37 1732.83 3305.18 1665.38L3305.4 1664.69L3305.73 1664.04C3334.73 1606.1 3357.06 1544.81 3372.1 1481.87C3387.57 1417.11 3395.42 1350.18 3395.42 1282.96C3395.42 1225.1 3389.59 1167.29 3378.1 1111.12C3366.9 1056.38 3350.18 1002.54 3328.42 951.088C3307.05 900.57 3280.61 851.844 3249.81 806.264C3219.31 761.115 3184.28 718.659 3145.7 680.074C3107.11 641.489 3064.65 606.459 3019.5 575.957C2973.92 545.164 2925.2 518.716 2874.68 497.348C2823.23 475.586 2769.39 458.873 2714.65 447.672C2658.48 436.177 2600.67 430.349 2542.81 430.349C2447.02 430.349 2352.99 446.114 2263.34 477.206L2255.77 479.83L2251.85 472.851C2178.89 343.122 2072.77 234.174 1944.95 157.786C1880.31 119.155 1810.86 89.3015 1738.54 69.0562C1663.92 48.17 1586.42 37.5799 1508.19 37.5799C1402.95 37.5799 1300.23 56.5192 1202.87 93.8716C1108.82 129.955 1022.53 182.08 946.423 248.797C870.749 315.13 807.95 393.397 759.77 481.423C710.406 571.611 678.142 668.962 663.875 770.774L662.807 778.394L655.135 778.995C569.317 785.712 486.749 808.307 409.726 846.151C334.884 882.923 268.053 932.66 211.09 993.98C94.0414 1119.98 29.5799 1284.14 29.5799 1456.23C29.5799 1547.94 47.5399 1636.91 82.9615 1720.65C99.9866 1760.91 121.059 1799.73 145.594 1836.05C169.898 1872.02 197.809 1905.85 228.553 1936.59C259.296 1967.34 293.125 1995.25 329.099 2019.55C365.416 2044.09 404.239 2065.16 444.49 2082.18C528.235 2117.61 617.2 2135.57 708.914 2135.57H2542.81H2658.65ZM2658.65 2145.15H2542.81H708.914C328.439 2145.15 20 1836.71 20 1456.23C20 1094.1 299.393 797.231 654.388 769.444C713.107 350.433 1072.99 28 1508.19 28C1831.05 28 2112.46 205.449 2260.2 468.155C2348.74 437.449 2443.82 420.77 2542.81 420.77C3018.98 420.77 3405 806.788 3405 1282.96C3405 1421.47 3372.34 1552.35 3314.29 1668.33C3224.84 1945.02 2965.11 2145.15 2658.65 2145.15Z" fill="white" fill-opacity="0.5"/>
</g>
</g>
<defs>
<filter id="filter0_f_240_3512" x="16" y="24" width="3393" height="2738.26" filterUnits="userSpaceOnUse" color-interpolation-filters="sRGB">
<feFlood flood-opacity="0" result="BackgroundImageFix"/>
<feBlend mode="normal" in="SourceGraphic" in2="BackgroundImageFix" result="shape"/>
<feGaussianBlur stdDeviation="2" result="effect1_foregroundBlur_240_3512"/>
</filter>
<filter id="filter1_d_240_3512" x="0" y="0" width="3445" height="2177.15" filterUnits="userSpaceOnUse" color-interpolation-filters="sRGB">
<feFlood flood-opacity="0" result="BackgroundImageFix"/>
<feColorMatrix in="SourceAlpha" type="matrix" values="0 0 0 0 0 0 0 0 0 0 0 0 0 0 0 0 0 0 127 0" result="hardAlpha"/>
<feOffset dx="10" dy="2"/>
<feGaussianBlur stdDeviation="15"/>
<feColorMatrix type="matrix" values="0 0 0 0 0.501961 0 0 0 0 0.501961 0 0 0 0 0.501961 0 0 0 0.302 0"/>
<feBlend mode="normal" in2="BackgroundImageFix" result="effect1_dropShadow_240_3512"/>
<feBlend mode="normal" in="SourceGraphic" in2="effect1_dropShadow_240_3512" result="shape"/>
</filter>
<linearGradient id="paint0_linear_240_3512" x1="1712.74" y1="28.0242" x2="2696.04" y2="2405.4" gradientUnits="userSpaceOnUse">
<stop stop-color="white" stop-opacity="0.604"/>
<stop offset="1" stop-color="white" stop-opacity="0.2"/>
</linearGradient>
</defs>
</svg>
