<svg width="24" height="24" viewBox="0 0 24 24" fill="none" xmlns="http://www.w3.org/2000/svg">
<path d="M4 12.0498C4 12.5935 4.21597 13.1149 4.60039 13.4993C4.98481 13.8837 5.50619 14.0997 6.04984 14.0997C6.5935 14.0997 7.11488 13.8837 7.4993 13.4993C7.88372 13.1149 8.09969 12.5935 8.09969 12.0498C8.09969 11.5062 7.88372 10.9848 7.4993 10.6004C7.11488 10.216 6.5935 10 6.04984 10C5.50619 10 4.98481 10.216 4.60039 10.6004C4.21597 10.9848 4 11.5062 4 12.0498V12.0498Z" fill="#4A4553"/>
<path d="M10.1484 12.0498C10.1484 12.5935 10.3644 13.1149 10.7488 13.4993C11.1332 13.8837 11.6546 14.0997 12.1983 14.0997C12.7419 14.0997 13.2633 13.8837 13.6477 13.4993C14.0322 13.1149 14.2481 12.5935 14.2481 12.0498C14.2481 11.5062 14.0322 10.9848 13.6477 10.6004C13.2633 10.216 12.7419 10 12.1983 10C11.6546 10 11.1332 10.216 10.7488 10.6004C10.3644 10.9848 10.1484 11.5062 10.1484 12.0498Z" fill="#4A4553"/>
<path d="M16.2988 12.0498C16.2988 12.5935 16.5148 13.1149 16.8992 13.4993C17.2836 13.8837 17.805 14.0997 18.3487 14.0997C18.8923 14.0997 19.4137 13.8837 19.7981 13.4993C20.1826 13.1149 20.3985 12.5935 20.3985 12.0498C20.3985 11.5062 20.1826 10.9848 19.7981 10.6004C19.4137 10.216 18.8923 10 18.3487 10C17.805 10 17.2836 10.216 16.8992 10.6004C16.5148 10.9848 16.2988 11.5062 16.2988 12.0498Z" fill="#4A4553"/>
</svg>
