<?xml version="1.0" encoding="UTF-8"?>
<svg xmlns="http://www.w3.org/2000/svg" xmlns:xlink="http://www.w3.org/1999/xlink" version="1.1" id="Layer_1" x="0px" y="0px" viewBox="0 0 512 512" style="enable-background:new 0 0 512 512;" xml:space="preserve" width="512" height="512">
<g>
	<path fill="#fdc969" d="M85.2,131.5c0.5,3.3,3.6,5.5,6.8,5c0.8-0.1,1.6-0.4,2.3-0.9l18.1-11.8l22.4,34.2c0.9,1.5,2.5,2.3,4.3,2.3   c0.7,0,1.4-0.1,2-0.4c2.3-0.8,3.6-3.3,3.1-5.7l-12.7-61.6c-0.5-3.3-3.6-5.5-6.9-4.9c-0.8,0.1-1.6,0.4-2.3,0.9l-18.1,11.9L82.1,66.6   c-1.6-2.4-4.8-3.1-7.1-1.5c-1.8,1.2-2.7,3.3-2.2,5.3L85.2,131.5z M99.2,103.7c1.8,2.8,5.5,3.5,8.3,1.7l18.1-11.9l11.9,57.5   l-20.1-30.5c-1.8-2.8-5.5-3.5-8.3-1.7l-18,11.9L79.5,73.6L99.2,103.7z"/>
	<path fill="#c5ead3" d="M464.7,268.7C464.7,268.7,464.7,268.7,464.7,268.7c-6-3.6-12.8-5.4-19.7-5.1l13.1-15.3c1-1.3,0.8-3.2-0.5-4.2   c-1.2-1-3-0.8-4.1,0.3l-16.3,19l-19-19.4c-1.2-1.2-3.1-1.2-4.2-0.1c-1.1,1.1-1.2,3.1-0.1,4.2c0,0,0,0,0.1,0.1l18.1,18.1   c-1.8,0.8-3.5,1.7-5.1,2.8l-15.6,10.2c-1.4,0.9-1.8,2.7-1,4.1c0.9,1.4,2.7,1.8,4.1,1c0,0,0.1,0,0.1-0.1l15.6-10.2   c9.5-6.2,21.7-6.3,31.3-0.4c1.4,0.9,3.3,0.5,4.1-0.9C466.5,271.4,466.1,269.5,464.7,268.7z"/>
	<path fill="#c5ead3" d="M131.8,474.8C131.5,475.1,132.3,474.7,131.8,474.8L131.8,474.8z"/>
	<path fill="#c5ead3" d="M159.3,463.8c-7.9-0.7-15.9,0.2-23.4,2.8l6.6-18.3c0.6-1.6-0.2-3.3-1.8-3.9c-1.6-0.6-3.3,0.2-3.9,1.8l-7.4,20.5l-22.3-20.5   c-1.2-1.1-3.1-1-4.2,0.2s-1,3.1,0.2,4.2l22.4,20.6c-0.8,0.5-1.5,0.9-2.3,1.4l-13.1,8.5c-1.4,0.9-1.8,2.8-0.9,4.2   c0.9,1.4,2.8,1.8,4.2,0.9l13.1-8.5c1.7-1.1,3.5-2.1,5.4-3c8.4-3.9,17.6-5.6,26.9-5c1.6,0.2,3.1-1,3.3-2.6   C162.2,465.5,161,464,159.3,463.8z"/>
	<path fill="#c5ead3" d="M100.7,264l-0.1-0.1L85,253.7c-1.6-1.1-3.3-2-5.1-2.8l18.1-18c1.2-1.2,1.1-3.1-0.1-4.2c-1.2-1.1-3-1.1-4.2,0l-19.1,19.1   l-16.3-19c-1.1-1.2-3-1.3-4.2-0.2c-1.2,1.1-1.3,2.8-0.3,4.1L67,248.1c-6.9-0.3-13.7,1.5-19.6,5.1c-1.5,0.9-1.9,2.8-1,4.2   c0.9,1.4,2.7,1.9,4.1,1c9.6-5.9,21.8-5.7,31.3,0.5L97.3,269c1.4,0.9,3.2,0.6,4.2-0.8C102.4,266.8,102.1,265,100.7,264z"/>
	<path fill="#fdc969" d="M291.7,465.9h6.8c1.7,0,3-1.3,3-3s-1.3-3-3-3h-6.8c-1.7,0-3,1.3-3,3S290,465.9,291.7,465.9z"/>
	<path fill="#fdc969" d="M224.3,465.9h56c1.7,0,3-1.3,3-3s-1.3-3-3-3h-56c-1.7,0-3,1.3-3,3S222.7,465.9,224.3,465.9z"/>
	<path fill="#fbb326" d="M371.9,333.5c6.2-0.1,11.1-5.1,11.1-11.3c-0.1-6.1-5-11-11.1-11.1h-8.7V274h8.3c6.2-0.1,11.1-5.1,11.1-11.3   c-0.1-6.1-5-11-11.1-11.1h-8.7v-37h8.7c6.2-0.1,11.1-5.1,11.1-11.3c-0.1-6.1-5-11-11.1-11.1h-8.7V162c0-10.8-8.7-19.5-19.5-19.5   h-1.9v-15.1c0-10-8.1-18-18-18h-41V92.7C303,81.8,311,56.2,300.1,35.6C289.2,14.9,263.6,7,242.9,17.9   c-20.7,10.9-28.6,36.4-17.7,57.1c4,7.6,10.2,13.7,17.7,17.7v16.7h-41c-10,0-18,8.1-18,18v15.1H182c-10.8,0-19.5,8.7-19.5,19.5v30.3   h-8.7c-6.2-0.1-11.2,4.9-11.3,11.1c-0.1,6.2,4.9,11.2,11.1,11.3h9v37h-8.7c-6.2-0.1-11.2,4.9-11.3,11.1   c-0.1,6.2,4.9,11.2,11.1,11.3h9v37H154c-6.2-0.1-11.2,4.9-11.3,11.1c-0.1,6.2,4.9,11.2,11.1,11.3h9v37h-8.7   c-6.2-0.1-11.2,4.9-11.3,11.1c-0.1,6.2,4.9,11.2,11.1,11.3h9v30.3c0,10.8,8.7,19.5,19.5,19.5h1.9v20.6c0,10,8.1,18,18,18h121.5   c10,0,18-8.1,18-18v-20.6h1.9c10.8,0,19.5-8.7,19.5-19.5v-30.3h8.7c6.2-0.1,11.1-5.1,11.1-11.3c-0.1-6.1-5-11-11.1-11.1h-8.7v-37   H371.9z M371.5,257.7c2.9,0,5.1,2.4,5.1,5.2c0,2.8-2.3,5.1-5.1,5.1h-97.7v-10.3H371.5z M356.8,274v37l-41.7,0.1V274H356.8z    M309.1,274v37h-35.3v-37H309.1z M273.8,251.6v-37h35.3v37H273.8z M315.1,251.6v-37h41.7v37H315.1z M371.5,198.3   c2.9,0,5.1,2.4,5.1,5.2s-2.3,5.1-5.1,5.1h-97.7v-10.3H371.5z M273.8,192.3v-43.8h35.3v43.8H273.8z M343.3,148.5   c7.5,0,13.5,6,13.5,13.5v30.3h-41.7v-43.8H343.3z M226.3,55.3c0-20.1,16.2-36.3,36.3-36.3s36.3,16.2,36.3,36.3   c0,12.3-6.2,23.8-16.6,30.5v-5.6c0-1.7-1.3-3-3-3h-33.4c-1.6,0-3,1.3-3,3v5.6C232.6,79.1,226.3,67.6,226.3,55.3z M276.4,83.2v26.2   H249V83.2H276.4z M189.9,127.4c0-6.6,5.4-12,12-12h121.5c6.6,0,12,5.4,12,12v15.1H189.9V127.4z M267.8,148.5v288.1h-10.3V148.5   H267.8z M251.5,148.5v43.8h-35.3v-43.8H251.5z M168.5,162c0-7.5,6-13.5,13.5-13.5h28.2v43.8h-41.7V162z M153.7,208.6   c-2.9,0-5.2-2.2-5.2-5.1s2.2-5.2,5.1-5.2h97.9v10.3H153.7z M251.5,214.6v37h-35.3v-37H251.5z M210.2,214.6v37h-41.7v-37H210.2z    M153.7,268c-2.9,0-5.2-2.2-5.2-5.1c0-2.9,2.2-5.2,5.1-5.2h97.9V268H153.7z M251.5,274v37h-35.3v-37H251.5z M210.2,274v37h-41.7   v-37H210.2z M153.7,327.4c-2.9,0-5.2-2.2-5.2-5.1c0-2.9,2.2-5.2,5.1-5.2h97.9v10.3H153.7z M251.5,333.4v37h-35.3v-37H251.5z    M210.2,333.4v37h-41.7v-37H210.2z M153.7,386.8L153.7,386.8c-2.9,0-5.2-2.2-5.2-5.1c0-2.9,2.2-5.2,5.1-5.2h97.9v10.3H153.7z    M251.5,392.8v43.8h-35.3v-43.8H251.5z M182,436.6c-7.5,0-13.5-6-13.5-13.5v-30.3h41.7v43.8H182z M335.4,463.2c0,6.6-5.4,12-12,12   H201.9c-6.6,0-12-5.4-12-12v-20.6h145.6L335.4,463.2z M273.8,436.6v-43.8h35.3v43.8H273.8z M356.8,423.1c0,7.5-6,13.5-13.5,13.5   h-28.2v-43.8h41.7V423.1z M371.5,376.4L371.5,376.4c2.9,0,5.1,2.4,5.1,5.2s-2.3,5.1-5.1,5.1h-97.7v-10.3H371.5z M273.8,370.4v-37   h35.3v37H273.8z M315.1,370.4v-37h41.7v37H315.1z M273.8,327.4v-10.3h97.7v0c2.9,0,5.1,2.4,5.1,5.2s-2.3,5.1-5.1,5.1H273.8z"/>
	<path fill="#fdc969" d="M387.6,159.9c0.7,0.3,1.4,0.5,2.1,0.5c1.7,0,3.3-0.8,4.2-2.2l23-33.1l17.8,12.3c2.7,1.9,6.4,1.2,8.3-1.5   c0.5-0.7,0.8-1.5,1-2.3l14.4-61.2c0.7-2.8-1-5.6-3.8-6.2c-2.1-0.5-4.2,0.3-5.4,2.1l-23.3,33.6l-17.7-12.3c-2.7-1.9-6.4-1.2-8.3,1.5   c-0.5,0.7-0.8,1.5-1,2.3L384.7,154C384.1,156.4,385.4,158.9,387.6,159.9z M404.7,94.5l17.7,12.3c2.7,1.9,6.4,1.2,8.3-1.5l20.8-30   l-13.3,57.1l-17.8-12.3c-2.7-1.9-6.4-1.2-8.3,1.5l-20.5,29.5L404.7,94.5z"/>
	<path fill="#fdc969" d="M409.2,492.7C408.9,492.9,409.6,492.7,409.2,492.7L409.2,492.7z"/>
	<path fill="#c5ead3" d="M438.6,489.6c-7.4-2.8-15.3-4-23.2-3.6l11.3-15.8c1-1.3,0.7-3.2-0.7-4.2c-1.3-1-3.2-0.7-4.2,0.7l-12.7,17.8l-16-25.8   c-0.9-1.4-2.7-1.8-4.1-1c-1.4,0.8-1.8,2.7-1,4.1l16.1,25.9c-0.9,0.2-1.7,0.5-2.6,0.7l-14.9,4.6c-1.6,0.5-2.5,2.1-2,3.7   c0.5,1.6,2.1,2.5,3.7,2h0.1l14.9-4.6c1.9-0.6,3.9-1,5.9-1.4c9.2-1.5,18.6-0.7,27.3,2.4c1.5,0.6,3.3-0.2,3.9-1.7   C441,491.9,440.2,490.2,438.6,489.6z"/>
</g>
</svg>
