<svg width="107" height="41" viewBox="0 0 107 41" fill="none" xmlns="http://www.w3.org/2000/svg">
<rect width="107" height="41" rx="20.5" fill="url(#paint0_linear_473_2663)"/>
<path d="M34.7652 14.7616C34.5075 14.6425 34.2068 14.6627 33.9686 14.8135C33.7296 14.9658 33.5846 15.2299 33.5846 15.5136V16.8975C33.5846 17.3553 33.2126 17.7273 32.7548 17.7273C32.3448 17.7273 31.998 17.4323 31.9308 17.0312C31.2557 12.8468 28.1813 6 26.9464 6C25.7115 6 22.6372 12.8468 21.963 17.0264C21.8949 17.4323 21.5481 17.7273 21.1381 17.7273C20.6803 17.7273 20.3083 17.3553 20.3083 16.8975V15.5135C20.3083 15.2299 20.1633 14.9657 19.9243 14.8134C19.6852 14.6627 19.3862 14.6424 19.1277 14.7615C16.303 16.0791 14.5 21.821 14.5 25.1952C14.5 30.5691 19.618 34.3225 26.9464 34.3225C34.2749 34.3225 39.3929 30.5691 39.3929 25.1952C39.3929 21.821 37.5899 16.0791 34.7652 14.7616Z" fill="url(#paint1_linear_473_2663)"/>
<path d="M30.9717 23.0996C30.8202 22.8549 30.5536 22.7058 30.2659 22.7058H28.4249L27.7515 20.0155C27.6673 19.6784 27.3829 19.4297 27.0377 19.3916C26.6852 19.3552 26.3603 19.5358 26.2046 19.8454L22.8856 26.4835C22.7568 26.7404 22.7705 27.0458 22.9221 27.2906C23.0736 27.5353 23.3402 27.6844 23.6278 27.6844H25.4689L26.1422 30.3746C26.2265 30.7117 26.5109 30.9605 26.8561 30.9985C27.2112 31.0359 27.5369 30.8484 27.6891 30.5448L31.0082 23.9067C31.137 23.6498 31.1233 23.3443 30.9717 23.0996Z" fill="url(#paint2_linear_473_2663)"/>
<path d="M44.1511 24.6614V15.9341H45.9963V19.535H49.742V15.9341H51.5829V24.6614H49.742V21.0563H45.9963V24.6614H44.1511ZM56.0275 24.7892C55.3656 24.7892 54.7931 24.6486 54.3102 24.3673C53.8301 24.0833 53.4593 23.6884 53.198 23.1827C52.9366 22.6742 52.8059 22.0847 52.8059 21.4142C52.8059 20.7381 52.9366 20.1472 53.198 19.6415C53.4593 19.133 53.8301 18.7381 54.3102 18.4568C54.7931 18.1727 55.3656 18.0307 56.0275 18.0307C56.6895 18.0307 57.2605 18.1727 57.7406 18.4568C58.2235 18.7381 58.5957 19.133 58.8571 19.6415C59.1184 20.1472 59.2491 20.7381 59.2491 21.4142C59.2491 22.0847 59.1184 22.6742 58.8571 23.1827C58.5957 23.6884 58.2235 24.0833 57.7406 24.3673C57.2605 24.6486 56.6895 24.7892 56.0275 24.7892ZM56.036 23.383C56.3372 23.383 56.5886 23.2977 56.7903 23.1273C56.992 22.954 57.144 22.7182 57.2463 22.4199C57.3514 22.1216 57.4039 21.7821 57.4039 21.4014C57.4039 21.0208 57.3514 20.6813 57.2463 20.383C57.144 20.0847 56.992 19.8489 56.7903 19.6756C56.5886 19.5023 56.3372 19.4156 56.036 19.4156C55.7321 19.4156 55.4764 19.5023 55.269 19.6756C55.0645 19.8489 54.9096 20.0847 54.8045 20.383C54.7022 20.6813 54.6511 21.0208 54.6511 21.4014C54.6511 21.7821 54.7022 22.1216 54.8045 22.4199C54.9096 22.7182 55.0645 22.954 55.269 23.1273C55.4764 23.2977 55.7321 23.383 56.036 23.383ZM63.911 18.1159V19.4796H59.9693V18.1159H63.911ZM60.8642 16.5477H62.6795V22.65C62.6795 22.8176 62.7051 22.9483 62.7562 23.0421C62.8074 23.133 62.8784 23.1969 62.9693 23.2338C63.063 23.2708 63.171 23.2892 63.2931 23.2892C63.3784 23.2892 63.4636 23.2821 63.5488 23.2679C63.6341 23.2509 63.6994 23.2381 63.7449 23.2296L64.0304 24.5804C63.9395 24.6088 63.8116 24.6415 63.6468 24.6784C63.4821 24.7182 63.2818 24.7423 63.046 24.7509C62.6085 24.7679 62.225 24.7097 61.8954 24.5761C61.5687 24.4426 61.3145 24.2352 61.1326 23.954C60.9508 23.6727 60.8613 23.3176 60.8642 22.8886V16.5477ZM70.2828 24.7679C69.7857 24.7679 69.3354 24.6401 68.932 24.3844C68.5314 24.1259 68.2132 23.7466 67.9775 23.2466C67.7445 22.7438 67.628 22.1273 67.628 21.3972C67.628 20.6472 67.7488 20.0236 67.9902 19.5264C68.2317 19.0264 68.5527 18.6529 68.9533 18.4057C69.3567 18.1557 69.7985 18.0307 70.2786 18.0307C70.6451 18.0307 70.9505 18.0932 71.1948 18.2182C71.4419 18.3404 71.6408 18.4938 71.7914 18.6784C71.9448 18.8602 72.0613 19.0392 72.1408 19.2154H72.1962V15.9341H74.0073V24.6614H72.2175V23.6131H72.1408C72.0556 23.7949 71.9348 23.9753 71.7786 24.1543C71.6252 24.3304 71.4249 24.4767 71.1777 24.5932C70.9334 24.7097 70.6351 24.7679 70.2828 24.7679ZM70.8581 23.3233C71.1507 23.3233 71.3979 23.2438 71.5996 23.0847C71.8042 22.9227 71.9604 22.6969 72.0684 22.4071C72.1792 22.1173 72.2346 21.7779 72.2346 21.3886C72.2346 20.9994 72.1806 20.6614 72.0726 20.3744C71.9647 20.0875 71.8084 19.8659 71.6039 19.7097C71.3993 19.5534 71.1507 19.4753 70.8581 19.4753C70.5598 19.4753 70.3084 19.5563 70.1039 19.7182C69.8993 19.8801 69.7445 20.1046 69.6394 20.3915C69.5343 20.6784 69.4817 21.0108 69.4817 21.3886C69.4817 21.7693 69.5343 22.106 69.6394 22.3986C69.7473 22.6884 69.9022 22.9156 70.1039 23.0804C70.3084 23.2423 70.5598 23.3233 70.8581 23.3233ZM78.4828 24.7892C77.8095 24.7892 77.2299 24.6529 76.7441 24.3801C76.2612 24.1046 75.889 23.7154 75.6277 23.2125C75.3663 22.7068 75.2356 22.1088 75.2356 21.4185C75.2356 20.7452 75.3663 20.1543 75.6277 19.6458C75.889 19.1372 76.2569 18.7409 76.7314 18.4568C77.2086 18.1727 77.7683 18.0307 78.4103 18.0307C78.8422 18.0307 79.2441 18.1003 79.6163 18.2395C79.9913 18.3759 80.318 18.5818 80.5964 18.8574C80.8777 19.133 81.0964 19.4796 81.2527 19.8972C81.4089 20.3119 81.487 20.7977 81.487 21.3546V21.8531H75.96V20.7281H79.7782C79.7782 20.4668 79.7214 20.2352 79.6078 20.0335C79.4941 19.8318 79.3365 19.6742 79.1348 19.5605C78.9359 19.444 78.7044 19.3858 78.4402 19.3858C78.1646 19.3858 77.9203 19.4497 77.7072 19.5776C77.497 19.7026 77.3322 19.8716 77.2129 20.0847C77.0936 20.2949 77.0325 20.5293 77.0297 20.7878V21.8574C77.0297 22.1813 77.0893 22.4611 77.2086 22.6969C77.3308 22.9327 77.5027 23.1145 77.7243 23.2423C77.9458 23.3702 78.2086 23.4341 78.5126 23.4341C78.7143 23.4341 78.899 23.4057 79.0666 23.3489C79.2342 23.2921 79.3777 23.2068 79.497 23.0932C79.6163 22.9796 79.7072 22.8404 79.7697 22.6756L81.4487 22.7864C81.3635 23.1898 81.1887 23.5421 80.9245 23.8432C80.6632 24.1415 80.3251 24.3744 79.9103 24.5421C79.4984 24.7068 79.0225 24.7892 78.4828 24.7892ZM84.5382 24.785C84.1206 24.785 83.7484 24.7125 83.4217 24.5676C83.095 24.4199 82.8365 24.2026 82.6461 23.9156C82.4586 23.6259 82.3649 23.2651 82.3649 22.8333C82.3649 22.4696 82.4316 22.1642 82.5652 21.9171C82.6987 21.6699 82.8805 21.471 83.1106 21.3205C83.3407 21.1699 83.6021 21.0563 83.8947 20.9796C84.1902 20.9029 84.4998 20.8489 84.8237 20.8176C85.2044 20.7779 85.5112 20.7409 85.7441 20.7068C85.9771 20.6699 86.1461 20.6159 86.2512 20.5449C86.3564 20.4739 86.4089 20.3688 86.4089 20.2296V20.204C86.4089 19.9341 86.3237 19.7253 86.1532 19.5776C85.9856 19.4298 85.747 19.356 85.4373 19.356C85.1106 19.356 84.8507 19.4284 84.6575 19.5733C84.4643 19.7154 84.3365 19.8943 84.274 20.1102L82.595 19.9739C82.6802 19.5761 82.8478 19.2324 83.0978 18.9426C83.3478 18.65 83.6703 18.4256 84.0652 18.2693C84.4629 18.1102 84.9231 18.0307 85.4458 18.0307C85.8095 18.0307 86.1575 18.0733 86.4899 18.1585C86.8251 18.2438 87.122 18.3759 87.3805 18.5548C87.6419 18.7338 87.8478 18.9639 87.9984 19.2452C88.149 19.5236 88.2243 19.8574 88.2243 20.2466V24.6614H86.5027V23.7537H86.4515C86.3464 23.9583 86.2058 24.1386 86.0297 24.2949C85.8535 24.4483 85.6419 24.569 85.3947 24.6571C85.1475 24.7423 84.862 24.785 84.5382 24.785ZM85.0581 23.5321C85.3251 23.5321 85.5609 23.4796 85.7654 23.3744C85.97 23.2665 86.1305 23.1216 86.247 22.9398C86.3635 22.758 86.4217 22.552 86.4217 22.3219V21.6273C86.3649 21.6642 86.2868 21.6983 86.1873 21.7296C86.0907 21.758 85.9814 21.785 85.8592 21.8105C85.737 21.8333 85.6149 21.8546 85.4927 21.8744C85.3706 21.8915 85.2598 21.9071 85.1603 21.9213C84.9473 21.9526 84.7612 22.0023 84.6021 22.0705C84.443 22.1386 84.3194 22.231 84.2314 22.3475C84.1433 22.4611 84.0993 22.6031 84.0993 22.7736C84.0993 23.0208 84.1887 23.2097 84.3677 23.3404C84.5495 23.4682 84.7797 23.5321 85.0581 23.5321ZM91.448 15.9341V24.6614H89.6326V15.9341H91.448Z" fill="url(#paint3_linear_473_2663)"/>
<defs>
<linearGradient id="paint0_linear_473_2663" x1="79.9353" y1="-1.36857e-06" x2="20.1086" y2="54.1713" gradientUnits="userSpaceOnUse">
<stop stop-color="#FFF5D9"/>
<stop offset="1" stop-color="#FFDC8B"/>
</linearGradient>
<linearGradient id="paint1_linear_473_2663" x1="26.9464" y1="34.3225" x2="26.9464" y2="6" gradientUnits="userSpaceOnUse">
<stop stop-color="#FD5900"/>
<stop offset="1" stop-color="#FFDE00"/>
</linearGradient>
<linearGradient id="paint2_linear_473_2663" x1="26.9469" y1="31.0033" x2="26.9469" y2="19.387" gradientUnits="userSpaceOnUse">
<stop stop-color="#FFE59A"/>
<stop offset="1" stop-color="#FFFFD5"/>
</linearGradient>
<linearGradient id="paint3_linear_473_2663" x1="67.8926" y1="30.6614" x2="67.8926" y2="9.66138" gradientUnits="userSpaceOnUse">
<stop stop-color="#FD5900"/>
<stop offset="1" stop-color="#FFDE00"/>
</linearGradient>
</defs>
</svg>
