<svg width="18" height="18" viewBox="0 0 18 18" fill="none" xmlns="http://www.w3.org/2000/svg">
<path fill-rule="evenodd" clip-rule="evenodd" d="M10.1928 16.7218C12.131 15.1344 15.75 11.6188 15.75 7.5C15.75 3.77208 12.7279 0.75 9 0.75C5.27208 0.75 2.25 3.77208 2.25 7.5C2.25 11.6188 5.86903 15.1344 7.80721 16.7218C8.50992 17.2973 9.49008 17.2973 10.1928 16.7218ZM9 9C10.2426 9 11.25 7.99264 11.25 6.75C11.25 5.50736 10.2426 4.5 9 4.5C7.75736 4.5 6.75 5.50736 6.75 6.75C6.75 7.99264 7.75736 9 9 9Z" fill="#777E91"/>
</svg>
