<svg width="16" height="15" viewBox="0 0 16 15" fill="none" xmlns="http://www.w3.org/2000/svg">
<path d="M11.375 0.75C10.0742 0.75 8.80859 1.34766 8 2.33203C7.19141 1.34766 5.92578 0.75 4.625 0.75C2.30469 0.75 0.511719 2.57812 0.511719 4.86328C0.511719 7.71094 3.04297 10.0312 6.91016 13.5469L8 14.4961L9.08984 13.5117C12.957 10.0312 15.4883 7.71094 15.4883 4.86328C15.4883 2.57812 13.6953 0.75 11.375 0.75ZM8.07031 12.4219L8 12.4922L7.92969 12.4219C4.34375 9.1875 1.98828 7.04297 1.98828 4.86328C1.98828 3.38672 3.11328 2.26172 4.625 2.26172C5.78516 2.26172 6.91016 3 7.29688 4.01953H8.70312C9.08984 3 10.2148 2.26172 11.375 2.26172C12.8867 2.26172 14.0117 3.38672 14.0117 4.86328C14.0117 7.04297 11.6562 9.1875 8.07031 12.4219Z" fill="black"/>
</svg>
