<svg width="69" height="41" viewBox="0 0 69 41" fill="none" xmlns="http://www.w3.org/2000/svg">
<rect width="69" height="41" rx="20.5" fill="url(#paint0_linear_438_62532)"/>
<path d="M25.8532 12.1524H13.1468C12.235 12.1524 11.3813 12.5989 10.8613 13.3477L8.93898 16.1161C8.26944 17.0803 8.37518 18.3832 9.19126 19.2269L17.7998 28.1266C18.7294 29.0875 20.2706 29.0875 21.2001 28.1266L29.8087 19.2269C30.6249 18.3832 30.7305 17.0803 30.0609 16.1161L28.1386 13.3475C27.6188 12.5989 26.7649 12.1524 25.8532 12.1524Z" fill="#FFDE9E"/>
<path d="M16.1968 12.1524H13.1468C12.2351 12.1524 11.3814 12.5989 10.8614 13.3477L8.93904 16.1161C8.26949 17.0803 8.37507 18.3832 9.19131 19.2269L17.7999 28.1266C18.2111 28.5518 18.7418 28.7889 19.2865 28.8377C19.2865 28.8377 13.3981 21.7021 13.3981 17.7751C13.3982 15.2414 15.0351 13.2482 16.1968 12.1524Z" fill="white"/>
<path d="M23.4035 17.7748H30.4857C30.5458 17.2048 30.4068 16.6149 30.0604 16.1157L28.1377 13.3472C27.8691 12.9601 27.5111 12.6539 27.1021 12.4484L23.4035 17.7748Z" fill="#FFE9C9"/>
<path d="M15.596 17.7751H23.4047L19.5003 12.1524L15.596 17.7751Z" fill="white"/>
<path d="M11.8972 12.4484C11.4881 12.6541 11.1303 12.9601 10.8615 13.3472L8.93901 16.1159C8.5924 16.6149 8.45342 17.2048 8.51351 17.7748H15.5957L11.8972 12.4484Z" fill="#FFE9C9"/>
<path d="M8.51215 17.7755C8.56787 18.3065 8.79631 18.8202 9.18992 19.2273L17.7985 28.1269C18.728 29.0878 20.2692 29.0878 21.1987 28.1269L29.8073 19.2273C30.2009 18.8202 30.4292 18.3065 30.4851 17.7755H8.51215Z" fill="#FFDE9E"/>
<path d="M19.2853 28.8382L15.5943 17.7755H8.51215C8.56787 18.3065 8.79631 18.8202 9.18992 19.2273L17.7985 28.1269C18.2097 28.5521 18.7405 28.7892 19.2853 28.8382Z" fill="white"/>
<path d="M19.7148 28.8382L23.4061 17.7755H30.4882C30.4325 18.3065 30.2041 18.8202 29.8105 19.2273L21.2019 28.1269C20.7907 28.5521 20.2594 28.7892 19.7148 28.8382Z" fill="white"/>
<path d="M13.3969 17.7755H8.51215C8.56787 18.3065 8.79631 18.8202 9.18992 19.2273L17.7985 28.1269C18.2097 28.5521 18.7405 28.7892 19.2853 28.8382C19.2853 28.8382 13.3969 21.7024 13.3969 17.7755Z" fill="white"/>
<path d="M13.3982 17.7748C13.3982 16.8924 13.5968 16.0755 13.9046 15.3393L11.8972 12.4484C11.4881 12.6539 11.1303 12.9601 10.8615 13.3472L8.93901 16.1159C8.5924 16.6149 8.45342 17.2048 8.51351 17.7748H13.3982Z" fill="#FFDE9E"/>
<path d="M40.0157 23.4219L43.0079 14.125H45.1719L41.0938 25.5H39.6329L40.0157 23.4219ZM37.2501 14.125L40.2188 23.4219L40.6251 25.5H39.1563L35.0938 14.125H37.2501ZM48.5391 14.125V25.5H46.5782V14.125H48.5391ZM55.2969 21.2578H52.336V19.7031H55.2969C55.8126 19.7031 56.2292 19.6198 56.5469 19.4531C56.8646 19.2865 57.0964 19.0573 57.2422 18.7656C57.3933 18.4688 57.4688 18.1302 57.4688 17.75C57.4688 17.3906 57.3933 17.0547 57.2422 16.7422C57.0964 16.4245 56.8646 16.1693 56.5469 15.9766C56.2292 15.7839 55.8126 15.6875 55.2969 15.6875H52.9376V25.5H50.9766V14.125H55.2969C56.1771 14.125 56.9245 14.2812 57.5391 14.5938C58.1589 14.901 58.6303 15.3281 58.9532 15.875C59.2761 16.4167 59.4376 17.0365 59.4376 17.7344C59.4376 18.4688 59.2761 19.099 58.9532 19.625C58.6303 20.151 58.1589 20.5547 57.5391 20.8359C56.9245 21.1172 56.1771 21.2578 55.2969 21.2578Z" fill="white"/>
<defs>
<linearGradient id="paint0_linear_438_62532" x1="7.5" y1="-14.5" x2="20.6694" y2="64.4765" gradientUnits="userSpaceOnUse">
<stop stop-color="#FFE074"/>
<stop offset="0.917841" stop-color="#F5740A"/>
</linearGradient>
</defs>
</svg>
